
<svg xmlns="http://www.w3.org/2000/svg" width="400" height="400" viewBox="0 0 400 400" fill="none">
  <rect width="400" height="400" fill="#F3F4F6"/>
  <path d="M162 143C162 132.507 170.507 124 181 124H219C229.493 124 238 132.507 238 143V181C238 191.493 229.493 200 219 200H181C170.507 200 162 191.493 162 181V143Z" fill="#D1D5DB"/>
  <path fill-rule="evenodd" clip-rule="evenodd" d="M158 276C158 265.507 166.507 257 177 257H223C233.493 257 242 265.507 242 276C242 286.493 233.493 295 223 295H177C166.507 295 158 286.493 158 276ZM177 267C172.029 267 168 271.029 168 276C168 280.971 172.029 285 177 285H223C227.971 285 232 280.971 232 276C232 271.029 227.971 267 223 267H177Z" fill="#D1D5DB"/>
  <path fill-rule="evenodd" clip-rule="evenodd" d="M200 174C194.477 174 190 178.477 190 184C190 189.523 194.477 194 200 194C205.523 194 210 189.523 210 184C210 178.477 205.523 174 200 174ZM180 184C180 173.507 188.954 165 200 165C211.046 165 220 173.507 220 184C220 194.493 211.046 203 200 203C188.954 203 180 194.493 180 184Z" fill="#E5E7EB"/>
</svg>
